<svg width="288" height="80" viewBox="0 0 288 80" fill="none" xmlns="http://www.w3.org/2000/svg">
<path d="M53.4785 62.9009H8.47839L9.81114 80.0001H52.1552L53.4785 62.9009Z" fill="#EF233C"/>
<path d="M54.783 47.0232H6.52209L8.47862 61.6797H53.4786L54.783 47.0232Z" fill="#EF233C"/>
<path d="M0.228308 20.4281L1.76284 26.384C1.86492 26.7802 2.39816 26.8491 2.59757 26.4919C2.67765 26.3484 2.82908 26.2595 2.99336 26.2595H56.8977C57.1337 26.2595 57.3558 26.3711 57.4967 26.5604C57.9024 27.1056 58.7663 26.8693 58.8382 26.1935L59.8185 16.9738C59.9352 15.8768 59.633 14.7762 58.9724 13.8926L56.9346 11.1666C55.9906 9.90386 54.5064 9.16031 52.9299 9.16031H50.3483C48.7069 9.16031 47.17 8.35467 46.2362 7.00475L45.8389 6.43037C44.9051 5.08044 43.3682 4.27481 41.7268 4.27481H39.4118C38.1807 4.27481 36.9929 3.82064 36.0759 2.99928L34.1514 1.27553C33.2343 0.454174 32.0465 0 30.8155 0H28.7266C27.3624 0 26.0575 0.557416 25.1143 1.54302L23.657 3.06578C22.9061 3.85041 21.9202 4.36923 20.8483 4.54379L17.506 5.08808C15.9311 5.34456 14.5731 6.33737 13.851 7.76033L12.98 9.47649C12.1278 11.1557 10.4044 12.2137 8.52134 12.2137H6.20151C4.11272 12.2137 2.24405 13.5122 1.5155 15.4698L0.319163 18.6844C0.111388 19.2427 0.0796795 19.8512 0.228308 20.4281Z" fill="#EF233C"/>
<path d="M56.0866 26.8701H3.91272L6.52142 45.8014H54.7823L56.0866 26.8701Z" fill="#EF233C"/>
<path d="M26.0863 12.2138V12.2138C27.9574 10.4618 30.832 10.3522 32.8311 11.9567L33.9124 12.8245" stroke="black" stroke-width="2" stroke-linecap="round"/>
<path d="M40.4348 18.321L40.5441 18.2479C43.1535 16.5026 46.6216 16.786 48.9131 18.9317V18.9317" stroke="black" stroke-width="2" stroke-linecap="round"/>
<path d="M10.4346 21.9848L11.4303 20.897C13.166 19.0008 15.9325 18.452 18.2607 19.542V19.542" stroke="black" stroke-width="2" stroke-linecap="round"/>
<path d="M77.312 50.5C76.992 50.5 76.7787 50.3187 76.672 49.956C76.5653 49.5933 76.6507 49.316 76.928 49.124C77.0773 49.0173 77.2907 48.8893 77.568 48.74C78.144 48.4627 78.432 48.004 78.432 47.364L79.04 30.18C78.976 29.668 78.6987 29.2947 78.208 29.06C77.9307 28.9107 77.7173 28.7827 77.568 28.676C77.2907 28.484 77.2053 28.2067 77.312 27.844C77.4187 27.4813 77.632 27.3 77.952 27.3H86.304C86.9227 27.3 87.36 27.5987 87.616 28.196L92.672 40.708L97.28 28.196C97.536 27.5987 97.9733 27.3 98.592 27.3H106.336C106.677 27.3 106.901 27.4813 107.008 27.844C107.136 28.2067 107.061 28.484 106.784 28.676C106.528 28.8467 106.336 28.964 106.208 29.028C105.717 29.3267 105.451 29.764 105.408 30.34L106.24 47.364C106.24 47.94 106.507 48.4093 107.04 48.772C107.168 48.836 107.36 48.9533 107.616 49.124C107.893 49.316 107.968 49.5933 107.84 49.956C107.733 50.3187 107.509 50.5 107.168 50.5H97.28C96.96 50.5 96.7467 50.3187 96.64 49.956C96.5333 49.5933 96.608 49.316 96.864 49.124C96.992 49.0387 97.2053 48.9107 97.504 48.74C98.0587 48.484 98.3573 48.0253 98.4 47.364L97.664 32.804L91.648 49.604C91.4347 50.2013 91.0187 50.5 90.4 50.5H88.896C88.2773 50.5 87.84 50.2013 87.584 49.604L81.184 32.708L80.672 47.364C80.6293 47.94 80.9067 48.4093 81.504 48.772C81.6107 48.836 81.792 48.9533 82.048 49.124C82.3253 49.316 82.4107 49.5933 82.304 49.956C82.1973 50.3187 81.9733 50.5 81.632 50.5H77.312ZM122.195 50.916C118.185 50.916 115.091 49.8493 112.915 47.716C110.739 45.5613 109.651 42.628 109.651 38.916C109.651 35.204 110.739 32.2707 112.915 30.116C115.091 27.9613 118.185 26.884 122.195 26.884C126.206 26.884 129.299 27.9613 131.475 30.116C133.673 32.2707 134.771 35.204 134.771 38.916C134.793 42.628 133.705 45.5613 131.507 47.716C129.331 49.8493 126.227 50.916 122.195 50.916ZM121.011 28.868C117.961 29.252 116.851 32.7827 117.683 39.46C118.067 42.6173 118.718 45.0387 119.635 46.724C120.553 48.388 121.822 49.124 123.443 48.932C125.065 48.74 126.11 47.7373 126.579 45.924C127.07 44.0893 127.123 41.572 126.739 38.372C126.334 35.1933 125.673 32.772 124.755 31.108C123.859 29.4227 122.611 28.676 121.011 28.868ZM134.616 28.676C134.338 28.484 134.253 28.2067 134.36 27.844C134.466 27.4813 134.69 27.3 135.032 27.3H145.88C146.221 27.3 146.445 27.4813 146.552 27.844C146.658 28.2067 146.573 28.484 146.296 28.676C146.274 28.6973 146.125 28.8147 145.848 29.028C145.336 29.4547 145.186 29.9453 145.4 30.5L150.776 44.708L156.536 30.372C156.792 29.7107 156.664 29.2093 156.152 28.868C156.024 28.7827 155.938 28.7187 155.896 28.676C155.618 28.484 155.533 28.2067 155.64 27.844C155.746 27.4813 155.96 27.3 156.28 27.3H160.6C160.941 27.3 161.165 27.4813 161.272 27.844C161.378 28.2067 161.293 28.484 161.016 28.676C160.589 28.932 160.322 29.092 160.216 29.156C159.576 29.476 159.16 29.8813 158.968 30.372L151.032 49.604C150.776 50.2013 150.328 50.5 149.688 50.5H145.72C145.08 50.5 144.632 50.2013 144.376 49.604L136.472 30.372C136.258 29.8173 135.864 29.38 135.288 29.06L134.616 28.676ZM163.396 28.676C163.119 28.484 163.034 28.2067 163.14 27.844C163.247 27.4813 163.46 27.3 163.78 27.3H173.7C174.042 27.3 174.266 27.4813 174.372 27.844C174.479 28.2067 174.394 28.484 174.116 28.676C173.86 28.8467 173.679 28.964 173.572 29.028C173.018 29.3693 172.74 29.8387 172.74 30.436V30.756V47.364C172.74 47.9613 173.018 48.4307 173.572 48.772C173.679 48.836 173.86 48.9533 174.116 49.124C174.394 49.316 174.479 49.5933 174.372 49.956C174.266 50.3187 174.042 50.5 173.7 50.5H163.78C163.46 50.5 163.247 50.3187 163.14 49.956C163.034 49.5933 163.119 49.316 163.396 49.124C163.546 49.0173 163.759 48.8893 164.036 48.74C164.612 48.4627 164.9 48.004 164.9 47.364V30.436C164.9 29.8173 164.612 29.3587 164.036 29.06C163.759 28.9107 163.546 28.7827 163.396 28.676ZM177.593 50.5C177.273 50.5 177.059 50.3187 176.953 49.956C176.846 49.5933 176.931 49.316 177.209 49.124C177.358 49.0173 177.571 48.8893 177.849 48.74C178.425 48.4627 178.713 48.004 178.713 47.364V30.5C178.713 29.8813 178.425 29.4227 177.849 29.124C177.571 28.9747 177.358 28.8467 177.209 28.74C176.931 28.548 176.846 28.2707 176.953 27.908C177.059 27.5453 177.273 27.364 177.593 27.364H195.961C196.622 27.364 197.027 27.684 197.177 28.324C197.475 29.4333 197.71 30.532 197.881 31.62C197.987 32.3667 197.742 32.8147 197.145 32.964C196.569 33.092 196.067 32.836 195.641 32.196C195.598 32.132 195.459 31.9187 195.225 31.556C195.011 31.172 194.862 30.9373 194.777 30.852C194.713 30.7453 194.542 30.5533 194.265 30.276C194.009 29.9987 193.753 29.8173 193.497 29.732C193.241 29.6253 192.889 29.5293 192.441 29.444C192.014 29.3373 191.534 29.284 191.001 29.284H187.513C187.214 29.284 186.979 29.38 186.809 29.572C186.638 29.7427 186.553 29.9667 186.553 30.244V30.5V30.82V37.54H188.857C189.625 37.54 190.254 37.444 190.745 37.252C191.235 37.06 191.566 36.836 191.737 36.58C191.929 36.3027 192.078 36.0253 192.185 35.748C192.291 35.4707 192.419 35.236 192.569 35.044C192.718 34.852 192.931 34.7453 193.208 34.724C193.529 34.7027 193.795 34.9587 194.009 35.492C194.222 36.004 194.339 36.6333 194.361 37.38C194.403 38.1053 194.382 38.8307 194.297 39.556C194.233 40.2813 194.083 40.9 193.849 41.412C193.635 41.9027 193.369 42.1373 193.049 42.116C192.793 42.0947 192.601 41.988 192.472 41.796C192.345 41.604 192.227 41.38 192.121 41.124C192.035 40.868 191.897 40.612 191.705 40.356C191.534 40.1 191.203 39.8867 190.713 39.716C190.243 39.524 189.625 39.428 188.857 39.428H186.553V47.364V47.62C186.553 47.9187 186.638 48.1533 186.809 48.324C186.979 48.4947 187.214 48.58 187.513 48.58H191.641C192.174 48.58 192.654 48.5373 193.081 48.452C193.529 48.3453 193.881 48.2493 194.137 48.164C194.393 48.0573 194.649 47.876 194.905 47.62C195.182 47.3427 195.363 47.1507 195.449 47.044C195.534 46.9373 195.683 46.7027 195.897 46.34C196.131 45.9773 196.27 45.764 196.312 45.7C196.739 45.06 197.241 44.804 197.817 44.932C198.414 45.06 198.649 45.4973 198.521 46.244C198.393 47.1187 198.158 48.228 197.817 49.572C197.667 50.1907 197.273 50.5 196.633 50.5H177.593ZM201.218 50.436C200.898 50.436 200.685 50.2547 200.578 49.892C200.472 49.5293 200.557 49.252 200.834 49.06C200.984 48.9533 201.197 48.8253 201.474 48.676C202.05 48.3987 202.338 47.94 202.338 47.3V29.636C202.338 29.0387 202.05 28.58 201.474 28.26C201.197 28.1107 200.984 27.9827 200.834 27.876C200.557 27.7053 200.472 27.4387 200.578 27.076C200.685 26.7133 200.898 26.532 201.218 26.532L210.69 26.5C214.914 26.4787 218.189 26.9373 220.514 27.876C222.84 28.7933 224.002 30.212 224.002 32.132C224.002 34.5853 221.944 36.2707 217.826 37.188C220.493 37.6147 222.509 38.34 223.874 39.364C225.24 40.3667 225.922 41.7427 225.922 43.492C225.922 45.796 224.642 47.5453 222.082 48.74C219.544 49.9133 216.013 50.4893 211.49 50.468L201.218 50.436ZM210.178 47.3V47.556C210.178 47.8547 210.264 48.0893 210.434 48.26C210.626 48.4307 210.861 48.516 211.138 48.516C213.528 48.516 215.277 48.1 216.386 47.268C217.517 46.436 218.082 45.1453 218.082 43.396C218.082 41.668 217.517 40.388 216.386 39.556C215.256 38.724 213.506 38.3187 211.138 38.34C210.861 38.34 210.626 38.4253 210.434 38.596C210.264 38.7667 210.178 39.0013 210.178 39.3V39.556V47.3ZM210.178 29.988V35.172V35.428C210.178 35.7053 210.264 35.94 210.434 36.132C210.626 36.3027 210.861 36.388 211.138 36.388C214.488 36.3667 216.162 35.044 216.162 32.42C216.162 31.076 215.757 30.084 214.946 29.444C214.136 28.7827 212.866 28.4413 211.138 28.42C210.861 28.42 210.626 28.516 210.434 28.708C210.264 28.8787 210.178 29.1133 210.178 29.412V29.668V29.988ZM239.977 50.916C235.966 50.916 232.873 49.8493 230.697 47.716C228.521 45.5613 227.433 42.628 227.433 38.916C227.433 35.204 228.521 32.2707 230.697 30.116C232.873 27.9613 235.966 26.884 239.977 26.884C243.987 26.884 247.081 27.9613 249.257 30.116C251.454 32.2707 252.553 35.204 252.553 38.916C252.574 42.628 251.486 45.5613 249.289 47.716C247.113 49.8493 244.009 50.916 239.977 50.916ZM238.793 28.868C235.742 29.252 234.633 32.7827 235.465 39.46C235.849 42.6173 236.499 45.0387 237.417 46.724C238.334 48.388 239.603 49.124 241.225 48.932C242.846 48.74 243.891 47.7373 244.361 45.924C244.851 44.0893 244.905 41.572 244.521 38.372C244.115 35.1933 243.454 32.772 242.537 31.108C241.641 29.4227 240.393 28.676 238.793 28.868ZM253.485 50.468C253.143 50.468 252.919 50.2867 252.813 49.924C252.706 49.5613 252.791 49.284 253.069 49.092C253.239 48.964 253.538 48.8253 253.965 48.676C254.541 48.42 255.021 48.0467 255.405 47.556L261.901 39.588L255.789 30.276C255.405 29.7213 254.946 29.3373 254.413 29.124C254.029 28.9747 253.709 28.8253 253.453 28.676C253.175 28.484 253.09 28.2067 253.197 27.844C253.303 27.4813 253.527 27.3 253.869 27.3H265.261C265.581 27.3 265.794 27.4813 265.901 27.844C266.007 28.2067 265.922 28.484 265.645 28.676C265.581 28.7187 265.495 28.7933 265.389 28.9C264.941 29.348 264.866 29.8067 265.165 30.276L268.845 35.876L273.325 30.212C273.666 29.764 273.613 29.316 273.165 28.868C273.122 28.8467 273.069 28.8147 273.005 28.772C272.962 28.708 272.919 28.6653 272.877 28.644C272.621 28.4733 272.546 28.2067 272.653 27.844C272.759 27.4813 272.973 27.3 273.293 27.3H278.157C278.477 27.3 278.69 27.4813 278.797 27.844C278.925 28.2067 278.85 28.4733 278.573 28.644C278.402 28.772 278.103 28.9213 277.677 29.092C277.122 29.3267 276.631 29.7 276.205 30.212L270.125 37.796L276.493 47.524C276.877 48.1 277.335 48.484 277.869 48.676C278.253 48.8253 278.573 48.9747 278.829 49.124C279.106 49.316 279.181 49.5933 279.053 49.956C278.946 50.3187 278.733 50.5 278.413 50.5H267.021C266.701 50.5 266.487 50.3187 266.381 49.956C266.274 49.5933 266.359 49.316 266.637 49.124C266.658 49.1027 266.701 49.0707 266.765 49.028C266.829 48.9853 266.871 48.9533 266.893 48.932C267.341 48.4627 267.415 47.9933 267.117 47.524L263.149 41.476L258.285 47.556C257.901 48.004 257.954 48.452 258.445 48.9C258.487 48.9213 258.53 48.9533 258.573 48.996C258.637 49.0387 258.679 49.0707 258.701 49.092C258.978 49.284 259.063 49.5613 258.957 49.924C258.85 50.2867 258.637 50.468 258.317 50.468H253.485Z" fill="#EF233C"/>
</svg>
